<svg xmlns="http://www.w3.org/2000/svg" viewBox="0 0 506.04 440.3"><defs><style>.cls-1{fill:#fff;}.cls-1,.cls-10,.cls-11,.cls-12,.cls-13,.cls-14,.cls-3,.cls-4,.cls-5,.cls-6,.cls-7,.cls-8,.cls-9{stroke:#39b54a;stroke-linejoin:round;}.cls-1,.cls-10,.cls-11,.cls-12,.cls-13,.cls-14,.cls-4,.cls-7,.cls-8,.cls-9{stroke-linecap:round;}.cls-1,.cls-3,.cls-4,.cls-6,.cls-7{stroke-width:5px;}.cls-2{fill:#d7df23;}.cls-10,.cls-11,.cls-12,.cls-13,.cls-14,.cls-3,.cls-4,.cls-5,.cls-8,.cls-9{fill:none;}.cls-5{stroke-width:6px;}.cls-6,.cls-7{fill:#39b54a;}.cls-8{stroke-width:4px;}.cls-9{stroke-width:3px;}.cls-10{stroke-width:2px;}.cls-12{stroke-width:0.75px;}.cls-13{stroke-width:0.5px;}.cls-14{stroke-width:0.25px;}</style></defs><title>Asset 1</title><g id="Layer_2" data-name="Layer 2"><g id="Layer_1-2" data-name="Layer 1"><rect class="cls-1" x="349.65" y="2.5" width="153.57" height="153.57"/><rect class="cls-2" x="373.54" y="69.88" width="101.78" height="68.6"/><circle class="cls-2" cx="463.96" cy="38.95" r="11.97"/><circle class="cls-3" cx="466.43" cy="36.48" r="11.97"/><line class="cls-4" x1="468.26" y1="62.97" x2="468.26" y2="130.68"/><polyline class="cls-5" points="474.48 20.22 461.85 36.59 487.04 55.89"/><circle class="cls-2" cx="422.13" cy="38.95" r="11.97"/><circle class="cls-3" cx="424.6" cy="36.48" r="11.97"/><line class="cls-4" x1="426.44" y1="62.97" x2="426.44" y2="130.68"/><polyline class="cls-5" points="432.66 20.22 420.03 36.59 445.22 55.89"/><circle class="cls-2" cx="380.3" cy="38.95" r="11.97"/><circle class="cls-3" cx="382.78" cy="36.48" r="11.97"/><line class="cls-4" x1="384.61" y1="62.97" x2="384.61" y2="130.68"/><polyline class="cls-5" points="390.83 20.22 378.2 36.59 403.39 55.89"/><rect class="cls-1" x="176.35" y="2.5" width="153.57" height="153.57"/><rect class="cls-2" x="200.25" y="69.88" width="101.78" height="68.6"/><circle class="cls-2" cx="290.66" cy="38.95" r="11.97"/><circle class="cls-3" cx="293.13" cy="36.48" r="11.97"/><line class="cls-4" x1="294.97" y1="62.97" x2="294.97" y2="130.68"/><polyline class="cls-5" points="301.19 20.22 288.56 36.59 313.75 55.89"/><circle class="cls-2" cx="248.83" cy="38.95" r="11.97"/><circle class="cls-3" cx="251.31" cy="36.48" r="11.97"/><line class="cls-4" x1="253.14" y1="62.97" x2="253.14" y2="130.68"/><polyline class="cls-5" points="259.36 20.22 246.73 36.59 271.92 55.89"/><circle class="cls-2" cx="207" cy="38.95" r="11.97"/><circle class="cls-3" cx="209.48" cy="36.48" r="11.97"/><line class="cls-4" x1="211.31" y1="62.97" x2="211.31" y2="130.68"/><polyline class="cls-5" points="217.53 20.22 204.9 36.59 230.09 55.89"/><rect class="cls-1" x="2.7" y="2.5" width="153.57" height="153.57"/><rect class="cls-2" x="26.95" y="69.88" width="101.78" height="68.6"/><circle class="cls-2" cx="117.36" cy="38.95" r="11.97"/><circle class="cls-3" cx="119.83" cy="36.48" r="11.97"/><line class="cls-4" x1="121.67" y1="62.97" x2="121.67" y2="130.68"/><polyline class="cls-5" points="127.89 20.22 115.26 36.59 140.45 55.89"/><circle class="cls-2" cx="75.53" cy="38.95" r="11.97"/><circle class="cls-3" cx="78.01" cy="36.48" r="11.97"/><line class="cls-4" x1="79.84" y1="62.97" x2="79.84" y2="130.68"/><polyline class="cls-5" points="86.06 20.22 73.43 36.59 98.62 55.89"/><circle class="cls-2" cx="33.71" cy="38.95" r="11.97"/><circle class="cls-3" cx="36.18" cy="36.48" r="11.97"/><line class="cls-4" x1="38.01" y1="62.97" x2="38.01" y2="130.68"/><polyline class="cls-5" points="44.23 20.22 31.6 36.59 56.79 55.89"/><rect class="cls-1" x="428.07" y="175.05" width="75.15" height="75.15"/><rect class="cls-2" x="439.76" y="208.03" width="49.81" height="33.57"/><circle class="cls-6" cx="485.22" cy="191.68" r="5.86"/><line class="cls-4" x1="486.11" y1="204.65" x2="486.11" y2="237.78"/><line class="cls-5" x1="482.98" y1="191.73" x2="495.3" y2="201.18"/><circle class="cls-6" cx="464.75" cy="191.68" r="5.86"/><line class="cls-4" x1="465.65" y1="204.65" x2="465.65" y2="237.78"/><line class="cls-5" x1="462.51" y1="191.73" x2="474.84" y2="201.18"/><circle class="cls-6" cx="444.28" cy="191.68" r="5.86"/><line class="cls-4" x1="445.18" y1="204.65" x2="445.18" y2="237.78"/><line class="cls-5" x1="442.04" y1="191.73" x2="454.37" y2="201.18"/><rect class="cls-1" x="343.26" y="175.05" width="75.15" height="75.15"/><rect class="cls-2" x="354.94" y="208.03" width="49.81" height="33.57"/><circle class="cls-6" cx="400.4" cy="191.68" r="5.86"/><line class="cls-4" x1="401.3" y1="204.65" x2="401.3" y2="237.78"/><line class="cls-5" x1="398.16" y1="191.73" x2="410.49" y2="201.18"/><circle class="cls-6" cx="379.93" cy="191.68" r="5.86"/><line class="cls-4" x1="380.83" y1="204.65" x2="380.83" y2="237.78"/><line class="cls-5" x1="377.69" y1="191.73" x2="390.02" y2="201.18"/><circle class="cls-6" cx="359.46" cy="191.68" r="5.86"/><line class="cls-4" x1="360.36" y1="204.65" x2="360.36" y2="237.78"/><line class="cls-5" x1="357.22" y1="191.73" x2="369.55" y2="201.18"/><rect class="cls-1" x="258.44" y="175.05" width="75.15" height="75.15"/><rect class="cls-2" x="270.13" y="208.03" width="49.81" height="33.57"/><circle class="cls-6" cx="315.59" cy="191.68" r="5.86"/><line class="cls-4" x1="316.48" y1="204.65" x2="316.48" y2="237.78"/><line class="cls-5" x1="313.35" y1="191.73" x2="325.67" y2="201.18"/><circle class="cls-6" cx="295.12" cy="191.68" r="5.86"/><line class="cls-4" x1="296.02" y1="204.65" x2="296.02" y2="237.78"/><line class="cls-5" x1="292.88" y1="191.73" x2="305.21" y2="201.18"/><circle class="cls-6" cx="274.65" cy="191.68" r="5.86"/><line class="cls-4" x1="275.55" y1="204.65" x2="275.55" y2="237.78"/><line class="cls-5" x1="272.41" y1="191.73" x2="284.74" y2="201.18"/><rect class="cls-1" x="173.63" y="175.05" width="75.15" height="75.15"/><rect class="cls-2" x="185.32" y="208.03" width="49.81" height="33.57"/><circle class="cls-6" cx="230.77" cy="191.68" r="5.86"/><line class="cls-4" x1="231.67" y1="204.65" x2="231.67" y2="237.78"/><line class="cls-5" x1="228.53" y1="191.73" x2="240.86" y2="201.18"/><circle class="cls-6" cx="210.3" cy="191.68" r="5.86"/><line class="cls-4" x1="211.2" y1="204.65" x2="211.2" y2="237.78"/><line class="cls-5" x1="208.06" y1="191.73" x2="220.39" y2="201.18"/><circle class="cls-6" cx="189.84" cy="191.68" r="5.86"/><line class="cls-4" x1="190.73" y1="204.65" x2="190.73" y2="237.78"/><line class="cls-5" x1="187.6" y1="191.73" x2="199.92" y2="201.18"/><rect class="cls-1" x="88.81" y="175.05" width="75.15" height="75.15"/><rect class="cls-2" x="100.5" y="208.03" width="49.81" height="33.57"/><circle class="cls-6" cx="145.96" cy="191.68" r="5.86"/><line class="cls-4" x1="146.86" y1="204.65" x2="146.86" y2="237.78"/><line class="cls-5" x1="143.72" y1="191.73" x2="156.05" y2="201.18"/><circle class="cls-6" cx="125.49" cy="191.68" r="5.86"/><line class="cls-4" x1="126.39" y1="204.65" x2="126.39" y2="237.78"/><line class="cls-5" x1="123.25" y1="191.73" x2="135.58" y2="201.18"/><circle class="cls-6" cx="105.02" cy="191.68" r="5.86"/><line class="cls-4" x1="105.92" y1="204.65" x2="105.92" y2="237.78"/><line class="cls-5" x1="102.78" y1="191.73" x2="115.11" y2="201.18"/><rect class="cls-1" x="2.7" y="175.05" width="75.15" height="75.15"/><rect class="cls-2" x="14.39" y="208.03" width="49.81" height="33.57"/><circle class="cls-6" cx="59.85" cy="191.68" r="5.86"/><line class="cls-4" x1="60.75" y1="204.65" x2="60.75" y2="237.78"/><line class="cls-5" x1="57.61" y1="191.73" x2="69.94" y2="201.18"/><circle class="cls-6" cx="39.38" cy="191.68" r="5.86"/><line class="cls-4" x1="40.28" y1="204.65" x2="40.28" y2="237.78"/><line class="cls-5" x1="37.14" y1="191.73" x2="49.47" y2="201.18"/><circle class="cls-6" cx="18.91" cy="191.68" r="5.86"/><line class="cls-4" x1="19.81" y1="204.65" x2="19.81" y2="237.78"/><line class="cls-5" x1="16.67" y1="191.73" x2="29" y2="201.18"/><rect class="cls-1" x="465.97" y="264.35" width="37.25" height="37.25"/><rect class="cls-1" x="465.97" y="264.35" width="37.25" height="37.25"/><rect class="cls-2" x="473.92" y="281.48" width="23.05" height="15.15"/><circle class="cls-6" cx="494.81" cy="273.37" r="2.9"/><line class="cls-4" x1="495.26" y1="279.8" x2="495.26" y2="296.22"/><circle class="cls-6" cx="484.67" cy="273.37" r="2.9"/><line class="cls-4" x1="485.11" y1="279.8" x2="485.11" y2="296.22"/><circle class="cls-6" cx="474.52" cy="273.37" r="2.9"/><line class="cls-4" x1="474.96" y1="279.8" x2="474.96" y2="296.22"/><rect class="cls-1" x="423.87" y="264.35" width="37.25" height="37.25"/><rect class="cls-1" x="423.87" y="264.35" width="37.25" height="37.25"/><rect class="cls-2" x="431.82" y="281.48" width="23.05" height="15.15"/><circle class="cls-6" cx="452.71" cy="273.37" r="2.9"/><line class="cls-4" x1="453.16" y1="279.8" x2="453.16" y2="296.22"/><circle class="cls-6" cx="442.57" cy="273.37" r="2.9"/><line class="cls-4" x1="443.01" y1="279.8" x2="443.01" y2="296.22"/><circle class="cls-6" cx="432.42" cy="273.37" r="2.9"/><line class="cls-4" x1="432.87" y1="279.8" x2="432.87" y2="296.22"/><rect class="cls-1" x="381.77" y="264.35" width="37.25" height="37.25"/><rect class="cls-1" x="381.77" y="264.35" width="37.25" height="37.25"/><rect class="cls-2" x="389.72" y="281.48" width="23.05" height="15.15"/><circle class="cls-6" cx="410.62" cy="273.37" r="2.9"/><line class="cls-4" x1="411.06" y1="279.8" x2="411.06" y2="296.22"/><circle class="cls-6" cx="400.47" cy="273.37" r="2.9"/><line class="cls-4" x1="400.92" y1="279.8" x2="400.92" y2="296.22"/><circle class="cls-6" cx="390.32" cy="273.37" r="2.9"/><line class="cls-4" x1="390.77" y1="279.8" x2="390.77" y2="296.22"/><rect class="cls-1" x="339.68" y="264.35" width="37.25" height="37.25"/><rect class="cls-1" x="339.68" y="264.35" width="37.25" height="37.25"/><rect class="cls-2" x="347.63" y="281.48" width="23.05" height="15.15"/><circle class="cls-6" cx="368.52" cy="273.37" r="2.9"/><line class="cls-4" x1="368.96" y1="279.8" x2="368.96" y2="296.22"/><circle class="cls-6" cx="358.37" cy="273.37" r="2.9"/><line class="cls-4" x1="358.82" y1="279.8" x2="358.82" y2="296.22"/><circle class="cls-6" cx="348.23" cy="273.37" r="2.9"/><line class="cls-4" x1="348.67" y1="279.8" x2="348.67" y2="296.22"/><rect class="cls-1" x="297.58" y="264.35" width="37.25" height="37.25"/><rect class="cls-1" x="297.58" y="264.35" width="37.25" height="37.25"/><rect class="cls-2" x="305.53" y="281.48" width="23.05" height="15.15"/><circle class="cls-6" cx="326.42" cy="273.37" r="2.9"/><line class="cls-4" x1="326.87" y1="279.8" x2="326.87" y2="296.22"/><circle class="cls-6" cx="316.28" cy="273.37" r="2.9"/><line class="cls-4" x1="316.72" y1="279.8" x2="316.72" y2="296.22"/><circle class="cls-6" cx="306.13" cy="273.37" r="2.9"/><line class="cls-4" x1="306.57" y1="279.8" x2="306.57" y2="296.22"/><rect class="cls-1" x="255.48" y="264.35" width="37.25" height="37.25"/><rect class="cls-1" x="255.48" y="264.35" width="37.25" height="37.25"/><rect class="cls-2" x="263.43" y="281.48" width="23.05" height="15.15"/><circle class="cls-6" cx="284.32" cy="273.37" r="2.9"/><line class="cls-4" x1="284.77" y1="279.8" x2="284.77" y2="296.22"/><circle class="cls-6" cx="274.18" cy="273.37" r="2.9"/><line class="cls-4" x1="274.62" y1="279.8" x2="274.62" y2="296.22"/><circle class="cls-6" cx="264.03" cy="273.37" r="2.9"/><line class="cls-4" x1="264.48" y1="279.8" x2="264.48" y2="296.22"/><rect class="cls-1" x="213.38" y="264.35" width="37.25" height="37.25"/><rect class="cls-1" x="213.38" y="264.35" width="37.25" height="37.25"/><rect class="cls-2" x="221.33" y="281.48" width="23.05" height="15.15"/><circle class="cls-6" cx="242.23" cy="273.37" r="2.9"/><line class="cls-4" x1="242.67" y1="279.8" x2="242.67" y2="296.22"/><circle class="cls-6" cx="232.08" cy="273.37" r="2.9"/><line class="cls-4" x1="232.52" y1="279.8" x2="232.52" y2="296.22"/><circle class="cls-6" cx="221.93" cy="273.37" r="2.9"/><line class="cls-4" x1="222.38" y1="279.8" x2="222.38" y2="296.22"/><rect class="cls-1" x="171.29" y="264.35" width="37.25" height="37.25"/><rect class="cls-1" x="171.29" y="264.35" width="37.25" height="37.25"/><rect class="cls-2" x="179.24" y="281.48" width="23.05" height="15.15"/><circle class="cls-6" cx="200.13" cy="273.37" r="2.9"/><line class="cls-4" x1="200.57" y1="279.8" x2="200.57" y2="296.22"/><circle class="cls-6" cx="189.98" cy="273.37" r="2.9"/><line class="cls-4" x1="190.43" y1="279.8" x2="190.43" y2="296.22"/><circle class="cls-6" cx="179.84" cy="273.37" r="2.9"/><line class="cls-4" x1="180.28" y1="279.8" x2="180.28" y2="296.22"/><rect class="cls-1" x="129.22" y="264.35" width="37.25" height="37.25" transform="translate(-136.72 427.72) rotate(-89.38)"/><rect class="cls-1" x="129.22" y="264.35" width="37.25" height="37.25" transform="translate(-136.72 427.72) rotate(-89.38)"/><rect class="cls-2" x="141.05" y="277.54" width="15.15" height="23.05" transform="translate(-142.04 434.53) rotate(-89.38)"/><circle class="cls-6" cx="158.14" cy="273.48" r="2.9"/><line class="cls-4" x1="158.51" y1="279.92" x2="158.33" y2="296.34"/><circle class="cls-6" cx="147.99" cy="273.37" r="2.9"/><line class="cls-4" x1="148.36" y1="279.81" x2="148.18" y2="296.23"/><circle class="cls-6" cx="137.84" cy="273.26" r="2.9"/><line class="cls-4" x1="138.22" y1="279.69" x2="138.04" y2="296.12"/><rect class="cls-1" x="87.09" y="264.35" width="37.25" height="37.25"/><rect class="cls-1" x="87.09" y="264.35" width="37.25" height="37.25"/><rect class="cls-2" x="95.04" y="281.48" width="23.05" height="15.15"/><circle class="cls-6" cx="115.93" cy="273.37" r="2.9"/><line class="cls-4" x1="116.38" y1="279.8" x2="116.38" y2="296.22"/><circle class="cls-6" cx="105.79" cy="273.37" r="2.9"/><line class="cls-4" x1="106.23" y1="279.8" x2="106.23" y2="296.22"/><circle class="cls-6" cx="95.64" cy="273.37" r="2.9"/><line class="cls-4" x1="96.08" y1="279.8" x2="96.08" y2="296.22"/><rect class="cls-1" x="44.99" y="264.35" width="37.25" height="37.25"/><rect class="cls-1" x="44.99" y="264.35" width="37.25" height="37.25"/><rect class="cls-2" x="52.94" y="281.48" width="23.05" height="15.15"/><circle class="cls-6" cx="73.84" cy="273.37" r="2.9"/><line class="cls-4" x1="74.28" y1="279.8" x2="74.28" y2="296.22"/><circle class="cls-6" cx="63.69" cy="273.37" r="2.9"/><line class="cls-4" x1="64.13" y1="279.8" x2="64.13" y2="296.22"/><circle class="cls-6" cx="53.54" cy="273.37" r="2.9"/><line class="cls-4" x1="53.99" y1="279.8" x2="53.99" y2="296.22"/><rect class="cls-1" x="2.89" y="264.35" width="37.25" height="37.25"/><rect class="cls-1" x="2.89" y="264.35" width="37.25" height="37.25"/><rect class="cls-2" x="10.85" y="281.48" width="23.05" height="15.15"/><circle class="cls-6" cx="31.74" cy="273.37" r="2.9"/><line class="cls-4" x1="32.18" y1="279.8" x2="32.18" y2="296.22"/><circle class="cls-6" cx="21.59" cy="273.37" r="2.9"/><line class="cls-4" x1="22.04" y1="279.8" x2="22.04" y2="296.22"/><circle class="cls-6" cx="11.44" cy="273.37" r="2.9"/><line class="cls-4" x1="11.89" y1="279.8" x2="11.89" y2="296.22"/><rect class="cls-7" x="484.64" y="315.23" width="18.58" height="18.58"/><rect class="cls-7" x="463.68" y="315.23" width="18.58" height="18.58"/><rect class="cls-7" x="442.72" y="315.23" width="18.58" height="18.58"/><rect class="cls-7" x="421.76" y="315.23" width="18.58" height="18.58"/><rect class="cls-7" x="400.8" y="315.23" width="18.58" height="18.58"/><rect class="cls-7" x="379.85" y="315.23" width="18.58" height="18.58"/><rect class="cls-7" x="358.89" y="315.23" width="18.58" height="18.58"/><rect class="cls-7" x="337.93" y="315.23" width="18.58" height="18.58"/><rect class="cls-7" x="316.97" y="315.23" width="18.58" height="18.58"/><rect class="cls-7" x="296.01" y="315.23" width="18.58" height="18.58"/><rect class="cls-7" x="275.05" y="315.23" width="18.58" height="18.58"/><rect class="cls-7" x="254.09" y="315.23" width="18.58" height="18.58"/><rect class="cls-7" x="233.13" y="315.23" width="18.58" height="18.58"/><rect class="cls-7" x="191.22" y="315.23" width="18.58" height="18.58"/><rect class="cls-7" x="149.3" y="315.23" width="18.58" height="18.58"/><rect class="cls-7" x="107.38" y="315.23" width="18.58" height="18.58"/><rect class="cls-7" x="65.46" y="315.23" width="18.58" height="18.58"/><rect class="cls-7" x="23.55" y="315.23" width="18.58" height="18.58"/><rect class="cls-7" x="212.17" y="315.23" width="18.58" height="18.58"/><rect class="cls-7" x="170.26" y="315.23" width="18.58" height="18.58"/><rect class="cls-7" x="128.34" y="315.23" width="18.58" height="18.58"/><rect class="cls-7" x="86.42" y="315.23" width="18.58" height="18.58"/><rect class="cls-7" x="44.5" y="315.23" width="18.58" height="18.58"/><rect class="cls-7" x="2.59" y="315.23" width="18.58" height="18.58"/><rect class="cls-7" x="493.93" y="345.34" width="9.29" height="9.29"/><rect class="cls-7" x="483.45" y="345.34" width="9.29" height="9.29"/><rect class="cls-7" x="472.98" y="345.34" width="9.29" height="9.29"/><rect class="cls-7" x="462.5" y="345.34" width="9.29" height="9.29"/><rect class="cls-7" x="452.02" y="345.34" width="9.29" height="9.29"/><rect class="cls-7" x="441.55" y="345.34" width="9.29" height="9.29"/><rect class="cls-7" x="431.07" y="345.34" width="9.29" height="9.29"/><rect class="cls-7" x="420.59" y="345.34" width="9.29" height="9.29"/><rect class="cls-7" x="410.12" y="345.34" width="9.29" height="9.29"/><rect class="cls-7" x="399.64" y="345.34" width="9.29" height="9.29"/><rect class="cls-7" x="389.17" y="345.34" width="9.29" height="9.29"/><rect class="cls-7" x="378.69" y="345.34" width="9.29" height="9.29"/><rect class="cls-7" x="368.21" y="345.34" width="9.29" height="9.29"/><rect class="cls-7" x="347.26" y="345.34" width="9.29" height="9.29"/><rect class="cls-7" x="326.31" y="345.34" width="9.29" height="9.29"/><rect class="cls-7" x="305.35" y="345.34" width="9.29" height="9.29"/><rect class="cls-7" x="284.4" y="345.34" width="9.29" height="9.29"/><rect class="cls-7" x="263.45" y="345.34" width="9.29" height="9.29"/><rect class="cls-7" x="357.74" y="345.34" width="9.29" height="9.29"/><rect class="cls-7" x="336.78" y="345.34" width="9.29" height="9.29"/><rect class="cls-7" x="315.83" y="345.34" width="9.29" height="9.29"/><rect class="cls-7" x="294.88" y="345.34" width="9.29" height="9.29"/><rect class="cls-7" x="273.93" y="345.34" width="9.29" height="9.29"/><rect class="cls-7" x="252.97" y="345.34" width="9.29" height="9.29"/><rect class="cls-7" x="244.07" y="345.34" width="9.29" height="9.29"/><rect class="cls-7" x="233.59" y="345.34" width="9.29" height="9.29"/><rect class="cls-7" x="223.12" y="345.34" width="9.29" height="9.29"/><rect class="cls-7" x="212.64" y="345.34" width="9.29" height="9.29"/><rect class="cls-7" x="202.16" y="345.34" width="9.29" height="9.29"/><rect class="cls-7" x="191.69" y="345.34" width="9.29" height="9.29"/><rect class="cls-7" x="181.21" y="345.34" width="9.29" height="9.29"/><rect class="cls-7" x="170.73" y="345.34" width="9.29" height="9.29"/><rect class="cls-7" x="160.26" y="345.34" width="9.29" height="9.29"/><rect class="cls-7" x="149.78" y="345.34" width="9.29" height="9.29"/><rect class="cls-7" x="139.3" y="345.34" width="9.29" height="9.29"/><rect class="cls-7" x="128.83" y="345.34" width="9.29" height="9.29"/><rect class="cls-7" x="118.35" y="345.34" width="9.29" height="9.29"/><rect class="cls-7" x="97.4" y="345.34" width="9.29" height="9.29"/><rect class="cls-7" x="76.45" y="345.34" width="9.29" height="9.29"/><rect class="cls-7" x="55.49" y="345.34" width="9.29" height="9.29"/><rect class="cls-7" x="34.54" y="345.34" width="9.29" height="9.29"/><rect class="cls-7" x="13.59" y="345.34" width="9.29" height="9.29"/><rect class="cls-7" x="107.88" y="345.34" width="9.29" height="9.29"/><rect class="cls-7" x="86.92" y="345.34" width="9.29" height="9.29"/><rect class="cls-7" x="65.97" y="345.34" width="9.29" height="9.29"/><rect class="cls-7" x="45.02" y="345.34" width="9.29" height="9.29"/><rect class="cls-7" x="24.06" y="345.34" width="9.29" height="9.29"/><rect class="cls-7" x="3.11" y="345.34" width="9.29" height="9.29"/><rect class="cls-7" x="498.58" y="364.3" width="4.64" height="4.64"/><rect class="cls-7" x="2.95" y="376.52" width="500.24" height="2.32"/><rect class="cls-7" x="2.94" y="388.39" width="500.57" height="0.58"/><rect class="cls-7" x="493.34" y="364.3" width="4.64" height="4.64"/><rect class="cls-7" x="488.1" y="364.3" width="4.64" height="4.64"/><rect class="cls-7" x="482.87" y="364.3" width="4.64" height="4.64"/><rect class="cls-7" x="477.63" y="364.3" width="4.64" height="4.64"/><rect class="cls-7" x="472.39" y="364.3" width="4.64" height="4.64"/><rect class="cls-7" x="467.15" y="364.3" width="4.64" height="4.64"/><rect class="cls-7" x="461.91" y="364.3" width="4.64" height="4.64"/><rect class="cls-7" x="456.67" y="364.3" width="4.64" height="4.64"/><rect class="cls-7" x="451.44" y="364.3" width="4.64" height="4.64"/><rect class="cls-7" x="446.2" y="364.3" width="4.64" height="4.64"/><rect class="cls-7" x="440.96" y="364.3" width="4.64" height="4.64"/><rect class="cls-7" x="435.72" y="364.3" width="4.64" height="4.64"/><rect class="cls-7" x="425.24" y="364.3" width="4.64" height="4.64"/><rect class="cls-7" x="414.77" y="364.3" width="4.64" height="4.64"/><rect class="cls-7" x="404.29" y="364.3" width="4.64" height="4.64"/><rect class="cls-7" x="393.82" y="364.3" width="4.64" height="4.64"/><rect class="cls-7" x="383.34" y="364.3" width="4.64" height="4.64"/><rect class="cls-7" x="430.48" y="364.3" width="4.64" height="4.64"/><rect class="cls-7" x="420.01" y="364.3" width="4.64" height="4.64"/><rect class="cls-7" x="409.53" y="364.3" width="4.64" height="4.64"/><rect class="cls-7" x="399.05" y="364.3" width="4.64" height="4.64"/><rect class="cls-7" x="388.58" y="364.3" width="4.64" height="4.64"/><rect class="cls-7" x="378.1" y="364.3" width="4.64" height="4.64"/><rect class="cls-7" x="373.65" y="364.3" width="4.64" height="4.64"/><rect class="cls-7" x="368.41" y="364.3" width="4.64" height="4.64"/><rect class="cls-7" x="363.17" y="364.3" width="4.64" height="4.64"/><rect class="cls-7" x="357.93" y="364.3" width="4.64" height="4.64"/><rect class="cls-7" x="352.7" y="364.3" width="4.64" height="4.64"/><rect class="cls-7" x="347.46" y="364.3" width="4.64" height="4.64"/><rect class="cls-7" x="342.22" y="364.3" width="4.64" height="4.64"/><rect class="cls-7" x="336.98" y="364.3" width="4.64" height="4.64"/><rect class="cls-7" x="331.74" y="364.3" width="4.64" height="4.64"/><rect class="cls-7" x="326.51" y="364.3" width="4.64" height="4.64"/><rect class="cls-7" x="321.27" y="364.3" width="4.64" height="4.64"/><rect class="cls-7" x="316.03" y="364.3" width="4.64" height="4.64"/><rect class="cls-7" x="310.79" y="364.3" width="4.64" height="4.64"/><rect class="cls-7" x="300.31" y="364.3" width="4.64" height="4.64"/><rect class="cls-7" x="289.84" y="364.3" width="4.64" height="4.64"/><rect class="cls-7" x="279.36" y="364.3" width="4.64" height="4.64"/><rect class="cls-7" x="268.88" y="364.3" width="4.64" height="4.64"/><rect class="cls-7" x="258.41" y="364.3" width="4.64" height="4.64"/><rect class="cls-7" x="305.55" y="364.3" width="4.64" height="4.64"/><rect class="cls-7" x="295.08" y="364.3" width="4.64" height="4.64"/><rect class="cls-7" x="284.6" y="364.3" width="4.64" height="4.64"/><rect class="cls-7" x="274.12" y="364.3" width="4.64" height="4.64"/><rect class="cls-7" x="263.65" y="364.3" width="4.64" height="4.64"/><rect class="cls-7" x="253.17" y="364.3" width="4.64" height="4.64"/><rect class="cls-7" x="248.19" y="364.3" width="4.64" height="4.64"/><rect class="cls-7" x="242.95" y="364.3" width="4.64" height="4.64"/><rect class="cls-7" x="237.71" y="364.3" width="4.64" height="4.64"/><rect class="cls-7" x="232.47" y="364.3" width="4.64" height="4.64"/><rect class="cls-7" x="227.23" y="364.3" width="4.64" height="4.64"/><rect class="cls-7" x="222" y="364.3" width="4.64" height="4.64"/><rect class="cls-7" x="216.76" y="364.3" width="4.64" height="4.64"/><rect class="cls-7" x="211.52" y="364.3" width="4.64" height="4.64"/><rect class="cls-7" x="206.28" y="364.3" width="4.64" height="4.64"/><rect class="cls-7" x="201.04" y="364.3" width="4.64" height="4.64"/><rect class="cls-7" x="195.8" y="364.3" width="4.64" height="4.64"/><rect class="cls-7" x="190.57" y="364.3" width="4.64" height="4.64"/><rect class="cls-7" x="185.33" y="364.3" width="4.64" height="4.64"/><rect class="cls-7" x="174.85" y="364.3" width="4.64" height="4.64"/><rect class="cls-7" x="164.38" y="364.3" width="4.64" height="4.64"/><rect class="cls-7" x="153.9" y="364.3" width="4.64" height="4.64"/><rect class="cls-7" x="143.42" y="364.3" width="4.64" height="4.64"/><rect class="cls-7" x="132.95" y="364.3" width="4.64" height="4.64"/><rect class="cls-7" x="180.09" y="364.3" width="4.64" height="4.64"/><rect class="cls-7" x="169.61" y="364.3" width="4.64" height="4.64"/><rect class="cls-7" x="159.14" y="364.3" width="4.64" height="4.64"/><rect class="cls-7" x="148.66" y="364.3" width="4.64" height="4.64"/><rect class="cls-7" x="138.18" y="364.3" width="4.64" height="4.64"/><rect class="cls-7" x="127.71" y="364.3" width="4.64" height="4.64"/><rect class="cls-7" x="123.26" y="364.3" width="4.64" height="4.64"/><rect class="cls-7" x="118.02" y="364.3" width="4.64" height="4.64"/><rect class="cls-7" x="112.78" y="364.3" width="4.64" height="4.64"/><rect class="cls-7" x="107.54" y="364.3" width="4.64" height="4.64"/><rect class="cls-7" x="102.3" y="364.3" width="4.64" height="4.64"/><rect class="cls-7" x="97.07" y="364.3" width="4.64" height="4.64"/><rect class="cls-7" x="91.83" y="364.3" width="4.64" height="4.64"/><rect class="cls-7" x="86.59" y="364.3" width="4.64" height="4.64"/><rect class="cls-7" x="81.35" y="364.3" width="4.64" height="4.64"/><rect class="cls-7" x="76.11" y="364.3" width="4.64" height="4.64"/><rect class="cls-7" x="70.87" y="364.3" width="4.64" height="4.64"/><rect class="cls-7" x="65.64" y="364.3" width="4.64" height="4.64"/><rect class="cls-7" x="60.4" y="364.3" width="4.64" height="4.64"/><rect class="cls-7" x="49.92" y="364.3" width="4.64" height="4.64"/><rect class="cls-7" x="39.44" y="364.3" width="4.64" height="4.64"/><rect class="cls-7" x="28.97" y="364.3" width="4.64" height="4.64"/><rect class="cls-7" x="18.49" y="364.3" width="4.64" height="4.64"/><rect class="cls-7" x="8.02" y="364.3" width="4.64" height="4.64"/><rect class="cls-7" x="55.16" y="364.3" width="4.64" height="4.64"/><rect class="cls-7" x="44.68" y="364.3" width="4.64" height="4.64"/><rect class="cls-7" x="34.21" y="364.3" width="4.64" height="4.64"/><rect class="cls-7" x="23.73" y="364.3" width="4.64" height="4.64"/><rect class="cls-7" x="13.25" y="364.3" width="4.64" height="4.64"/><rect class="cls-7" x="2.78" y="364.3" width="4.64" height="4.64"/><line class="cls-8" x1="504.04" y1="398.26" x2="2.06" y2="398.26"/><line class="cls-9" x1="503.9" y1="405.22" x2="1.92" y2="405.22"/><line class="cls-10" x1="503.9" y1="412.21" x2="1.3" y2="412.21"/><line class="cls-11" x1="505.38" y1="419.2" x2="0.5" y2="419.2"/><line class="cls-12" x1="505.38" y1="426.19" x2="0.5" y2="426.19"/><line class="cls-13" x1="505.38" y1="433.18" x2="0.5" y2="433.18"/><line class="cls-14" x1="505.38" y1="440.17" x2="0.5" y2="440.17"/></g></g></svg>