<svg xmlns="http://www.w3.org/2000/svg" viewBox="0 0 202.65 255.2"><defs><style>.cls-1{fill:#ef382a;}</style></defs><title>Asset 1</title><g id="Layer_2" data-name="Layer 2"><g id="Layer_1-2" data-name="Layer 1"><path class="cls-1" d="M145.48,235V248.4a6.8,6.8,0,0,1-6.79,6.8H115.11a6.82,6.82,0,0,1-6.8-6.8V231.28a6.89,6.89,0,0,0-5.3-6.64c-33.67-8.46-61.2-32.28-71.27-66.63a6.77,6.77,0,0,0-6.55-4.78H6.8A6.79,6.79,0,0,1,0,146.45v0H0v-24a6.82,6.82,0,0,1,6.8-6.8H22.58a6.74,6.74,0,0,0,6.67-5.54c7-40.35,36.75-68.42,74-77.71a6.92,6.92,0,0,0,5.13-6.73V6.8A6.79,6.79,0,0,1,115.16,0h24.42a6.8,6.8,0,0,1,6.79,6.8V30.08C168.15,33.17,187,42.71,200.7,56.61a6.84,6.84,0,0,1-.1,9.66l-.11.1-16.91,15.9a6.83,6.83,0,0,1-9.24,0c-10.92-9.65-25.86-15.56-42.67-15.56-35.63,0-63.89,25.37-63.89,61.82S96,190.37,131.67,190.37c16.81,0,31.75-5.94,42.63-15.62a6.83,6.83,0,0,1,9.24,0l17,16a6.84,6.84,0,0,1,.3,9.67h0l-.1.1c-12.74,12.89-29.92,22.07-49.81,25.77a6.73,6.73,0,0,0-5.4,6.66Z"/></g></g></svg>