<?xml version="1.0" encoding="utf-8"?>
<!-- Generator: Adobe Illustrator 23.0.1, SVG Export Plug-In . SVG Version: 6.00 Build 0)  -->
<svg version="1.1" id="Layer_1" xmlns="http://www.w3.org/2000/svg" xmlns:xlink="http://www.w3.org/1999/xlink" x="0px" y="0px"
	 viewBox="0 0 792 612" style="enable-background:new 0 0 792 612;" xml:space="preserve">
<style type="text/css">
	.st0{fill:#D6E15B;}
	.st1{fill:#3180C3;}
	.st2{fill:#FFFFFF;stroke:#39B54A;stroke-width:5;stroke-linecap:round;stroke-linejoin:round;stroke-miterlimit:10;}
	.st3{fill:#D7DF23;}
	.st4{fill:none;stroke:#39B54A;stroke-width:5;stroke-linejoin:round;stroke-miterlimit:10;}
	.st5{fill:#FFFFFF;stroke:#1C4F7B;stroke-width:5;stroke-linejoin:round;stroke-miterlimit:10;}
	.st6{fill:none;stroke:#1C4F7B;stroke-width:5;stroke-linejoin:round;stroke-miterlimit:10;}
	.st7{fill:none;stroke:#1C4F7B;stroke-width:5;stroke-linecap:round;stroke-linejoin:round;stroke-miterlimit:10;}
	.st8{fill:#FFFFFF;stroke:#1C4F7B;stroke-width:5;stroke-linecap:round;stroke-linejoin:round;stroke-miterlimit:10;}
	.st9{fill:#1C4F7B;}
	.st10{fill:#1C4F7B;stroke:#1C4F7B;stroke-width:5;stroke-linejoin:round;stroke-miterlimit:10;}
	.st11{fill:#5EB5E5;}
	.st12{fill:#8172B4;}
	.st13{fill:#2D77BA;stroke:#1C4F7B;stroke-width:5;stroke-linejoin:round;stroke-miterlimit:10;}
	.st14{fill:none;stroke:#39B54A;stroke-width:5;stroke-linecap:round;stroke-linejoin:round;stroke-miterlimit:10;}
	.st15{fill:none;stroke:#39B54A;stroke-width:6;stroke-linejoin:round;stroke-miterlimit:10;}
	.st16{fill:#39B54A;stroke:#39B54A;stroke-width:5;stroke-linejoin:round;stroke-miterlimit:10;}
	.st17{fill:#39B54A;stroke:#39B54A;stroke-width:5;stroke-linecap:round;stroke-linejoin:round;stroke-miterlimit:10;}
	.st18{fill:none;stroke:#39B54A;stroke-width:4;stroke-linecap:round;stroke-linejoin:round;stroke-miterlimit:10;}
	.st19{fill:none;stroke:#39B54A;stroke-width:3;stroke-linecap:round;stroke-linejoin:round;stroke-miterlimit:10;}
	.st20{fill:none;stroke:#39B54A;stroke-width:2;stroke-linecap:round;stroke-linejoin:round;stroke-miterlimit:10;}
	.st21{fill:none;stroke:#39B54A;stroke-linecap:round;stroke-linejoin:round;stroke-miterlimit:10;}
	.st22{fill:none;stroke:#39B54A;stroke-width:0.75;stroke-linecap:round;stroke-linejoin:round;stroke-miterlimit:10;}
	.st23{fill:none;stroke:#39B54A;stroke-width:0.5;stroke-linecap:round;stroke-linejoin:round;stroke-miterlimit:10;}
	.st24{fill:none;stroke:#39B54A;stroke-width:0.25;stroke-linecap:round;stroke-linejoin:round;stroke-miterlimit:10;}
	.st25{fill:#8DC63F;}
	.st26{fill:#39B44A;}
</style>
<path class="st1" d="M298.29,279.87H256l-4,66.86h50.04c1.24,0,2.23-1.05,2.15-2.29l-3.74-62.55
	C300.38,280.76,299.43,279.87,298.29,279.87z"/>
<path class="st25" d="M293.34,269.59l-24.66,35.43c-0.86,1.24-2.61,1.44-3.73,0.43l-25.3-22.87l25.6-39.3l27.65,22.99
	C293.88,267.09,294.08,268.54,293.34,269.59z"/>
<path class="st25" d="M276.53,418.44h-6.36l-14,5.6c-2.12,0.85-3.5,2.9-3.5,5.18l0,0h23.87V418.44z"/>
<polygon class="st25" points="295.34,429.21 284.04,429.21 286.17,418.44 292.79,418.44 "/>
<polygon class="st6" points="299.17,272.45 281,272.34 263.07,297.99 253.63,289.44 250.84,339.31 303.17,339.31 "/>
<polygon class="st6" points="273.54,413.42 267.17,413.42 259.17,339.3 273.54,339.3 "/>
<path class="st6" d="M273.53,413.44h-6.36l-14,5.6c-2.12,0.85-3.5,2.9-3.5,5.18l0,0h23.87V413.44z"/>
<polygon class="st6" points="292.34,424.21 281.04,424.21 283.17,413.44 289.79,413.44 "/>
<polygon class="st6" points="289.54,413.42 283.17,413.42 279.17,339.3 293.54,339.3 "/>
<path class="st7" d="M296.62,228.45l4.92,13.04c1.35,3.46-0.41,7.36-3.9,8.64l-13.11,5.1"/>
<path class="st6" d="M290.16,270.57l24.16-10.45c5.11-2.02,7.63-7.79,5.63-12.91l-12.72-32.61c-2.64-6.75-7.76-12.24-14.31-15.34
	l-9.61-4.54"/>
<path class="st6" d="M268.82,195.95c-6.32,4.51-17.24,0.15-23.21,17.55c-2.77,8.07-3,29.4-3.87,43"/>
<polygon class="st6" points="268.8,195.93 261.26,207.33 274.63,226.15 "/>
<polygon class="st6" points="275.3,225.93 289.66,210.46 283.33,194.72 "/>
<polygon class="st7" points="290.65,258.35 263.07,297.99 235.66,273.22 261.26,233.91 "/>
<circle class="st8" cx="248.19" cy="258.3" r="6.82"/>
<circle class="st8" cx="285.39" cy="262.21" r="7.82"/>
<rect x="282.72" y="226.53" class="st8" width="14.18" height="9.61"/>
<line class="st7" x1="275.47" y1="225.16" x2="275.47" y2="244.32"/>
<line class="st7" x1="299.04" y1="268.29" x2="299.04" y2="272.9"/>
<path class="st6" d="M287.79,165.47v5.8c0,0.57-0.02,1.15-0.06,1.71c-0.02,0.33-0.05,0.65-0.08,0.98c-0.03,0.3-0.06,0.61-0.1,0.91
	c-0.16,1.19-0.39,2.36-0.71,3.51c-0.07,0.26-0.14,0.51-0.22,0.76c-0.07,0.25-0.15,0.51-0.24,0.75c-0.08,0.25-0.17,0.5-0.26,0.75
	c-0.32,0.89-0.7,1.77-1.12,2.62c-0.13,0.27-0.27,0.53-0.41,0.79c-0.03,0.06-0.06,0.12-0.09,0.18c-0.28,0.5-0.57,1-0.88,1.49
	c-0.17,0.27-0.34,0.54-0.52,0.8c-0.18,0.27-0.37,0.53-0.56,0.79v0.01c-1.61,2.2-3.57,4.17-5.82,5.83c-1.88,1.38-4.43,1.42-6.34,0.08
	l-0.16-0.11c-4.25-2.96-7.5-7.03-9.46-11.67c-0.12-0.3-0.24-0.6-0.35-0.9c-0.87-2.41-1.41-4.96-1.57-7.57h-0.13v-6.34
	c0-0.4,0.02-0.79,0.07-1.17c0.57-4.75,4.63-8.43,9.53-8.43h4.16h1.63h4.17C283.17,157.04,287.22,160.72,287.79,165.47z"/>
<path class="st3" d="M295.88,164.65v39.9l0,0c-6.15,0.01-11.14-4.98-11.14-11.13v-1.98c3.04-4.14,4.87-9.11,5.19-14.33h0.13v-6.34
	c0-0.4-0.02-0.79-0.07-1.17c-0.57-4.75-4.63-8.43-9.53-8.43h-4.16v-8.66c0-2.06,1.67-3.72,3.73-3.72l0,0
	C288.78,148.79,295.88,155.89,295.88,164.65z"/>
<path class="st3" d="M256.17,162.95v39.9l0,0c6.15,0.01,11.14-4.98,11.14-11.13v-1.98c-3.04-4.14-4.87-9.11-5.19-14.33h-0.13v-6.34
	c0-0.4,0.02-0.79,0.07-1.17c0.57-4.75,4.63-8.43,9.53-8.43h4.16v-8.66c0-2.06-1.67-3.72-3.72-3.72h0
	C263.27,147.09,256.17,154.19,256.17,162.95z"/>
<path class="st6" d="M293.89,160.77v39.9l0,0c-6.15,0.01-11.14-4.98-11.14-11.13v-1.98c3.04-4.14,4.87-9.11,5.19-14.33h0.13v-6.34
	c0-0.4-0.02-0.79-0.07-1.17c-0.57-4.75-4.63-8.43-9.53-8.43h-4.16v-8.66c0-2.06,1.67-3.72,3.72-3.72h0
	C286.79,144.92,293.89,152.02,293.89,160.77z"/>
<path class="st6" d="M253.1,160.77v39.9h0c6.15,0.01,11.14-4.98,11.14-11.13v-1.98c-3.04-4.14-4.87-9.11-5.19-14.33h-0.13v-6.34
	c0-0.4,0.02-0.79,0.07-1.17c0.57-4.75,4.63-8.43,9.53-8.43h4.16v-8.66c0-2.06-1.67-3.72-3.72-3.72h0
	C260.2,144.92,253.1,152.02,253.1,160.77z"/>
<line class="st7" x1="253.59" y1="245.5" x2="255.91" y2="224.68"/>
</svg>
