<?xml version="1.0" encoding="utf-8"?>
<!-- Generator: Adobe Illustrator 23.0.4, SVG Export Plug-In . SVG Version: 6.00 Build 0)  -->
<svg version="1.1" id="Layer_1" xmlns="http://www.w3.org/2000/svg" xmlns:xlink="http://www.w3.org/1999/xlink" x="0px" y="0px"
	 viewBox="0 0 792 612" style="enable-background:new 0 0 792 612;" xml:space="preserve">
<style type="text/css">
	.st0{fill:none;}
	.st1{fill:#1FB2C8;}
	.st2{fill:url(#New_Pattern_Swatch_1);}
	.st3{font-family:'SofiaProRegular';}
	.st4{font-size:80.4384px;}
	.st5{letter-spacing:7;}
	.st6{fill:#474E5E;}
</style>
<pattern  width="55.3" height="53.6" patternUnits="userSpaceOnUse" id="New_Pattern_Swatch_1" viewBox="0 -53.6 55.3 53.6" style="overflow:visible;">
	<g>
		<rect y="-53.6" class="st0" width="55.3" height="53.6"/>
		<rect x="0" y="-53.6" class="st1" width="55.3" height="53.6"/>
	</g>
</pattern>
<text transform="matrix(1 0 0 1 144.7114 330.6083)" class="st2 st3 st4 st5">OPEN</text>
<text transform="matrix(1 0 0 1 449.1099 330.6083)" class="st6 st3 st4 st5">PES</text>
<g>
	<path class="st6" d="M426.5,333.2v3.8c0,1.1-0.9,1.9-1.9,1.9H418c-1.1,0-1.9-0.9-1.9-1.9v-4.4l0-0.5c0-0.9-0.6-1.7-1.5-1.9
		c-9.5-2.4-17.2-9.1-20.1-18.8c-0.2-0.8-1-1.3-1.8-1.3l-0.5,0h-4.7c-1.1,0-1.9-0.9-1.9-1.9v-6.8c0-1.1,0.9-1.9,1.9-1.9h4.4l0,0
		c0.9,0,1.7-0.7,1.9-1.6c2-11.4,10.4-19.3,20.8-21.9c0.9-0.2,1.4-1,1.4-1.9l0-0.7V269c0-1.1,0.9-1.9,1.9-1.9h6.9
		c1.1,0,1.9,0.9,1.9,1.9v5.1l0,1.5c6.1,0.9,11.5,3.6,15.3,7.5c0.8,0.8,0.7,2-0.1,2.7l-4.8,4.5c-0.7,0.7-1.9,0.7-2.6,0
		c-3.1-2.7-7.3-4.4-12-4.4c-10,0-18,7.2-18,17.4s8,17.4,18,17.4c4.7,0,8.9-1.7,12-4.4c0.7-0.7,1.9-0.7,2.6,0l4.8,4.5
		c0.8,0.7,0.8,2,0.1,2.8c-3.6,3.6-8.4,6.2-14,7.3c-0.9,0.2-1.5,1-1.5,1.9L426.5,333.2z"/>
</g>
<g>
	<path d="M612.3,326.5h-1.8v5.2h-1.1v-5.2h-1.8v-1h4.6V326.5z"/>
	<path d="M619.1,331.8l-0.5-4.2l-1.7,3.5H616l-1.7-3.5l-0.5,4.2h-1.1l0.8-6.2h1l2,4.3l2-4.3h1l0.8,6.2H619.1z"/>
</g>
</svg>
