<?xml version="1.0" encoding="utf-8"?>
<!-- Generator: Adobe Illustrator 23.0.1, SVG Export Plug-In . SVG Version: 6.00 Build 0)  -->
<svg version="1.1" id="Layer_1" xmlns="http://www.w3.org/2000/svg" xmlns:xlink="http://www.w3.org/1999/xlink" x="0px" y="0px"
	 viewBox="0 0 792 612" style="enable-background:new 0 0 792 612;" xml:space="preserve">
<style type="text/css">
	.st0{fill:#D6E15B;}
	.st1{fill:#3180C3;}
	.st2{fill:#FFFFFF;stroke:#39B54A;stroke-width:5;stroke-linecap:round;stroke-linejoin:round;stroke-miterlimit:10;}
	.st3{fill:#D7DF23;}
	.st4{fill:none;stroke:#39B54A;stroke-width:5;stroke-linejoin:round;stroke-miterlimit:10;}
	.st5{fill:#FFFFFF;stroke:#1C4F7B;stroke-width:5;stroke-linejoin:round;stroke-miterlimit:10;}
	.st6{fill:none;stroke:#1C4F7B;stroke-width:5;stroke-linejoin:round;stroke-miterlimit:10;}
	.st7{fill:none;stroke:#1C4F7B;stroke-width:5;stroke-linecap:round;stroke-linejoin:round;stroke-miterlimit:10;}
	.st8{fill:#FFFFFF;stroke:#1C4F7B;stroke-width:5;stroke-linecap:round;stroke-linejoin:round;stroke-miterlimit:10;}
	.st9{fill:#1C4F7B;}
	.st10{fill:#1C4F7B;stroke:#1C4F7B;stroke-width:5;stroke-linejoin:round;stroke-miterlimit:10;}
	.st11{fill:#5EB5E5;}
	.st12{fill:#8172B4;}
	.st13{fill:#2D77BA;stroke:#1C4F7B;stroke-width:5;stroke-linejoin:round;stroke-miterlimit:10;}
	.st14{fill:none;stroke:#39B54A;stroke-width:5;stroke-linecap:round;stroke-linejoin:round;stroke-miterlimit:10;}
	.st15{fill:none;stroke:#39B54A;stroke-width:6;stroke-linejoin:round;stroke-miterlimit:10;}
	.st16{fill:#39B54A;stroke:#39B54A;stroke-width:5;stroke-linejoin:round;stroke-miterlimit:10;}
	.st17{fill:#39B54A;stroke:#39B54A;stroke-width:5;stroke-linecap:round;stroke-linejoin:round;stroke-miterlimit:10;}
	.st18{fill:none;stroke:#39B54A;stroke-width:4;stroke-linecap:round;stroke-linejoin:round;stroke-miterlimit:10;}
	.st19{fill:none;stroke:#39B54A;stroke-width:3;stroke-linecap:round;stroke-linejoin:round;stroke-miterlimit:10;}
	.st20{fill:none;stroke:#39B54A;stroke-width:2;stroke-linecap:round;stroke-linejoin:round;stroke-miterlimit:10;}
	.st21{fill:none;stroke:#39B54A;stroke-linecap:round;stroke-linejoin:round;stroke-miterlimit:10;}
	.st22{fill:none;stroke:#39B54A;stroke-width:0.75;stroke-linecap:round;stroke-linejoin:round;stroke-miterlimit:10;}
	.st23{fill:none;stroke:#39B54A;stroke-width:0.5;stroke-linecap:round;stroke-linejoin:round;stroke-miterlimit:10;}
	.st24{fill:none;stroke:#39B54A;stroke-width:0.25;stroke-linecap:round;stroke-linejoin:round;stroke-miterlimit:10;}
	.st25{fill:#8DC63F;}
	.st26{fill:#39B44A;}
</style>
<path class="st25" d="M359.09,146.21l-18.94,3.88c-1.9,0.39-3.26,2.06-3.26,3.99v8.1l22.2-2.41V146.21z"/>
<path class="st25" d="M359.04,146.21l6.54,3.04c2.09,0.97,3.43,3.07,3.43,5.38v8.2l-9.98-3.09V146.21z"/>
<polygon class="st1" points="388.46,417.82 379.85,417.82 358.84,320.35 351.23,320.35 331.85,417.82 323.23,417.82 324.24,320.35 
	324.24,294.8 386.05,294.8 "/>
<path class="st25" d="M379.7,418.44h6.36l14,5.6c2.12,0.85,3.5,2.9,3.5,5.18l0,0H379.7V418.44z"/>
<path class="st6" d="M373.41,413.44h6.36l14,5.6c2.12,0.85,3.5,2.9,3.5,5.18l0,0h-23.87V413.44z"/>
<polygon class="st6" points="381.85,413.42 373.24,413.42 352.23,315.95 344.62,315.95 325.24,413.42 316.62,413.42 317.63,315.95 
	317.63,290.4 379.44,290.4 "/>
<polygon class="st25" points="334.99,429.21 319.69,429.21 322.58,418.44 331.54,418.44 "/>
<polygon class="st6" points="329.03,424.21 313.73,424.21 316.62,413.44 325.58,413.44 "/>
<rect x="361.1" y="235.48" class="st25" width="14.18" height="15.78"/>
<path class="st6" d="M355.18,146.8l-18.94,3.88c-1.9,0.39-3.26,2.06-3.26,3.99v8.1l22.2-2.41V146.8z"/>
<path class="st6" d="M355.13,146.8l6.54,3.04c2.09,0.97,3.43,3.07,3.43,5.38v8.2l-9.98-3.09V146.8z"/>
<path class="st6" d="M365.11,163.4v12.77c0,8.84-7.17,18.47-16.02,18.47c-8.84,0-16.02-9.62-16.02-18.47v-13.57l22.05-2.28
	L365.11,163.4z"/>
<path class="st6" d="M357.88,191.91v6.22c0,4.88-3.96,8.84-8.84,8.84h0c-4.88,0-8.84-3.96-8.84-8.84v-6.22"/>
<path class="st6" d="M317.63,290.4h61.86l8.02-75.79c0-7.52-6.09-13.61-13.61-13.61h-15.67"/>
<polygon class="st8" points="349.17,220.91 330.83,207.24 333.14,201 340.69,201 "/>
<polygon class="st8" points="349.09,220.91 367.28,207.24 364.97,201 357.43,201 "/>
<rect x="317.63" y="278.73" class="st8" width="61.85" height="11.67"/>
<path class="st8" d="M385.31,207.61l24.25,38.53c2.5,3.97,2.26,9.08-0.6,12.79l-26.07,33.89l-6.75-15.23l17.29-25.19
	c0.94-1.37,0.9-3.19-0.09-4.52l-15.23-20.34"/>
<circle class="st8" cx="378.25" cy="286.06" r="7.82"/>
<path class="st6" d="M320.31,290.4l-8.02-75.79c0-7.52,6.09-13.61,13.61-13.61h15.67"/>
<path class="st8" d="M314.49,207.61l-24.25,38.53c-2.5,3.97-2.26,9.08,0.6,12.79l26.07,33.89l6.75-15.23l-17.29-25.19
	c-0.94-1.37-0.9-3.19,0.09-4.52l15.23-20.34"/>
<circle class="st8" cx="324.7" cy="287.82" r="7.82"/>
<rect x="356.1" y="230.48" class="st7" width="14.18" height="15.78"/>
</svg>
