<svg id="Layer_1" data-name="Layer 1" xmlns="http://www.w3.org/2000/svg" xmlns:xlink="http://www.w3.org/1999/xlink" viewBox="0 0 475.59 89.29"><defs><style>.cls-1{fill:none;}.cls-2{fill:#ef382a;}.cls-3{isolation:isolate;font-size:80.44px;fill:#474e5e;font-family:SofiaProSoftBold, Sofia Pro Soft;letter-spacing:0.09em;}.cls-4{letter-spacing:0.08em;}.cls-5{fill:url(#New_Pattern_Swatch_2);}</style><pattern id="New_Pattern_Swatch_2" data-name="New Pattern Swatch 2" width="55.3" height="53.6" patternTransform="matrix(1, 0, 0, -1, -34.7, 773.8)" patternUnits="userSpaceOnUse" viewBox="0 0 55.3 53.6"><rect class="cls-1" width="55.3" height="53.6"/><rect class="cls-1" width="55.3" height="53.6"/><rect class="cls-2" width="55.3" height="53.6"/></pattern></defs><title>openCPEs_logo_22</title><text class="cls-3" transform="translate(0 68.13)">OPEN</text><text class="cls-3" transform="translate(304.4 68.13)">P<tspan class="cls-4" x="56.39" y="0">E</tspan><tspan x="108.27" y="0">S</tspan></text><path class="cls-5" d="M426.5,333.2V337a1.9,1.9,0,0,1-1.9,1.9H418a1.9,1.9,0,0,1-1.9-1.9v-4.9a1.93,1.93,0,0,0-1.5-1.9c-9.5-2.4-17.2-9.1-20.1-18.8a1.83,1.83,0,0,0-1.8-1.3h-5.2a1.9,1.9,0,0,1-1.9-1.9v-6.8a1.9,1.9,0,0,1,1.9-1.9h4.4a2,2,0,0,0,1.9-1.6c2-11.4,10.4-19.3,20.8-21.9a1.84,1.84,0,0,0,1.4-1.9V269a1.9,1.9,0,0,1,1.9-1.9h6.9a1.9,1.9,0,0,1,1.9,1.9v6.6a26.78,26.78,0,0,1,15.3,7.5,1.82,1.82,0,0,1-.1,2.7l-4.8,4.5a1.87,1.87,0,0,1-2.6,0,18.21,18.21,0,0,0-12-4.4c-10,0-18,7.2-18,17.4s8,17.4,18,17.4a18.21,18.21,0,0,0,12-4.4,1.87,1.87,0,0,1,2.6,0l4.8,4.5a2,2,0,0,1,.1,2.8,27,27,0,0,1-14,7.3,1.93,1.93,0,0,0-1.5,1.9Z" transform="translate(-144.71 -262.48)"/><path d="M612.3,326.5h-1.8v5.2h-1.1v-5.2h-1.8v-1h4.6v1Z" transform="translate(-144.71 -262.48)"/><path d="M619.1,331.8l-.5-4.2-1.7,3.5H616l-1.7-3.5-.5,4.2h-1.1l.8-6.2h1l2,4.3,2-4.3h1l.8,6.2Z" transform="translate(-144.71 -262.48)"/></svg>