<?xml version="1.0" encoding="utf-8"?>
<!-- Generator: Adobe Illustrator 22.1.0, SVG Export Plug-In . SVG Version: 6.00 Build 0)  -->
<svg version="1.1" id="Layer_1" xmlns="http://www.w3.org/2000/svg" xmlns:xlink="http://www.w3.org/1999/xlink" x="0px" y="0px"
	 viewBox="0 0 463 126" style="enable-background:new 0 0 463 126;" xml:space="preserve">
<style type="text/css">
	.st0{fill:#EF382A;}
	.st1{fill:#1FB2C8;}
	.st2{fill:#474E5E;}
	.st3{fill:#ED1C24;}
	.st4{fill:none;}
	.st5{font-family:'SofiaProBlack';}
	.st6{font-size:75.0878px;}
	.st7{letter-spacing:4;}
	.st8{letter-spacing:3;}
	.st9{fill:#A4AEC1;}
	.st10{font-family:'OpenSans-Bold';}
	.st11{font-size:12px;}
</style>
<g>
	<rect x="294.6" y="37.1" class="st4" width="214.7" height="88.1"/>
	<text transform="matrix(1 0 0 1 294.5996 90.5959)" class="st5 st6 st7">PEs</text>
	<rect x="8.6" y="37.1" class="st4" width="214.7" height="88.1"/>
	<text transform="matrix(1 0 0 1 8.5996 90.5959)"><tspan x="0" y="0" class="st5 st6 st8">O</tspan><tspan x="61.6" y="0" class="st5 st6 st7">pen</tspan></text>
	<g>
		<path d="M269.1,101.5v4.6c0,1.3-1.1,2.4-2.4,2.4h-8.2c-1.3,0-2.4-1.1-2.4-2.4v-5.4l0-0.6c0-1.1-0.8-2-1.8-2.3
			c-11.7-2.9-21.3-11.2-24.7-23.1c-0.3-1-1.2-1.7-2.3-1.7l-0.6,0H221c-1.3,0-2.4-1.1-2.4-2.4v-8.3c0-1.3,1.1-2.4,2.4-2.4h5.5l0,0
			c1.1,0,2.1-0.8,2.3-1.9c2.4-14,12.8-23.8,25.7-27c1.1-0.3,1.8-1.2,1.8-2.3l0-0.9v-5.7c0-1.3,1.1-2.4,2.4-2.4h8.5
			c1.3,0,2.4,1.1,2.4,2.4v6.2l0,1.8c7.6,1.1,14.1,4.4,18.9,9.2c0.9,0.9,0.9,2.5-0.1,3.4l-5.9,5.5c-0.9,0.8-2.3,0.8-3.2,0
			c-3.8-3.4-9-5.4-14.8-5.4c-12.4,0-22.2,8.8-22.2,21.5S252,86,264.4,86c5.8,0,11-2.1,14.8-5.4c0.9-0.8,2.3-0.8,3.2,0l5.9,5.5
			c1,0.9,1,2.4,0.1,3.4c-4.4,4.5-10.4,7.7-17.3,9c-1.1,0.2-1.9,1.2-1.9,2.3L269.1,101.5z"/>
	</g>
	<text transform="matrix(1 0 0 1 430.2811 42.0804)" class="st9 st10 st11">TM</text>
</g>
</svg>
