<svg id="Layer_1" data-name="Layer 1" xmlns="http://www.w3.org/2000/svg" viewBox="0 0 206.96 260.82"><defs><style>.cls-1{fill:#ef382a;}</style></defs><title>2Artboard 1</title><path class="cls-1" d="M147.9,237.3v13.39a6.8,6.8,0,0,1-6.79,6.8H117.53a6.81,6.81,0,0,1-6.8-6.8V233.57a6.89,6.89,0,0,0-5.3-6.64c-33.67-8.46-61.2-32.28-71.27-66.63a6.78,6.78,0,0,0-6.55-4.78H9.22a6.8,6.8,0,0,1-6.8-6.8v-24a6.81,6.81,0,0,1,6.8-6.8H25a6.74,6.74,0,0,0,6.67-5.54c7-40.35,36.75-68.42,74-77.71a6.91,6.91,0,0,0,5.13-6.73V9.09a6.8,6.8,0,0,1,6.8-6.8H142a6.8,6.8,0,0,1,6.79,6.8V32.37C170.57,35.46,189.41,45,203.12,58.9a6.83,6.83,0,0,1-.21,9.76L186,84.56a6.82,6.82,0,0,1-9.24,0C165.84,74.91,150.9,69,134.09,69,98.46,69,70.2,94.37,70.2,130.82s28.26,61.84,63.89,61.84c16.81,0,31.75-5.94,42.63-15.62a6.82,6.82,0,0,1,9.24,0L202.91,193a6.84,6.84,0,0,1,.2,9.77c-12.74,12.89-29.92,22.07-49.81,25.77a6.73,6.73,0,0,0-5.4,6.66Z"/></svg>