<?xml version="1.0" encoding="utf-8"?>
<!-- Generator: Adobe Illustrator 22.1.0, SVG Export Plug-In . SVG Version: 6.00 Build 0)  -->
<svg version="1.1" id="Layer_1" xmlns="http://www.w3.org/2000/svg" xmlns:xlink="http://www.w3.org/1999/xlink" x="0px" y="0px"
	 viewBox="0 0 485.6 82.3" style="enable-background:new 0 0 485.6 82.3;" xml:space="preserve">
<style type="text/css">
	.st0{fill:none;}
	.st1{fill:#EF382A;}
	.st2{enable-background:new    ;}
	.st3{fill:#474E5E;}
	.st4{fill:url(#SVGID_1_);}
	.st5{opacity:0.5;}
</style>
<pattern  y="89.3" width="55.3" height="53.6" patternUnits="userSpaceOnUse" id="New_Pattern_Swatch_2" viewBox="0 -53.6 55.3 53.6" style="overflow:visible;">
	<g>
		<rect y="-53.6" class="st0" width="55.3" height="53.6"/>
		<rect y="-53.6" class="st0" width="55.3" height="53.6"/>
		<rect y="-53.6" class="st0" width="55.3" height="53.6"/>
		<rect y="-53.6" class="st1" width="55.3" height="53.6"/>
	</g>
</pattern>
<title>openCPEs_logo_22</title>
<g class="st2">
	<path class="st3" d="M5.9,40.5c0-15.8,12.2-28.5,28-28.5C49.7,12.1,62,24.8,62,40.5c0,15.7-12.3,28.4-28.2,28.4
		C18.1,68.9,5.9,56.2,5.9,40.5z M54.7,40.5c0-11.9-9-21.7-20.8-21.7c-11.7,0-20.7,9.8-20.7,21.7c0,11.8,9,21.6,20.7,21.6
		C45.7,62.2,54.7,52.4,54.7,40.5z"/>
	<path class="st3" d="M118.4,30c0,8.8-4.7,17.3-16.5,17.3H87.2v20.8h-7.3V12.7h22C113.7,12.7,118.4,21.4,118.4,30z M111.1,30
		c0-5.1-2.7-10.5-9.3-10.5H87.2v21h14.2C108.4,40.5,111.1,35.3,111.1,30z"/>
	<path class="st3" d="M168.7,61.4v6.8h-33.5V12.7h32.7v6.8h-25.4v18h22.2v6.8h-22.2v17.1H168.7z"/>
	<path class="st3" d="M227.7,12.7v55.4h-7.1l-25.6-42.2v42.2h-7.3V12.7h7.2l25.4,42.1V12.7H227.7z"/>
</g>
<g class="st2">
	<path class="st3" d="M350.7,30c0,8.8-4.7,17.3-16.5,17.3h-14.7v20.8h-7.3V12.7h22C345.9,12.7,350.7,21.4,350.7,30z M343.3,30
		c0-5.1-2.7-10.5-9.3-10.5h-14.6v21h14.2C340.6,40.5,343.3,35.3,343.3,30z"/>
</g>
<g class="st2">
	<path class="st3" d="M400,61.4v6.8h-33.5V12.7h32.7v6.8h-25.4v18H396v6.8h-22.2v17.1H400z"/>
</g>
<g class="st2">
	<path class="st3" d="M412.8,52.3h7.2c0.2,4.9,4.9,9.9,12.3,9.9c7.2,0,11.2-4.5,11.2-9.4c0-5.4-4.9-7.8-9.6-9l-7.2-1.8
		c-11.7-2.8-13.6-9.7-13.6-14.2c0-9.6,8.6-15.7,18.3-15.7c9.7,0,17.5,6.2,17.5,16.1h-7.2c0-5.6-4.6-9.3-10.5-9.3
		c-5.6,0-10.7,3.4-10.7,8.8c0,1.9,0.6,6,8,7.7l7.2,1.8c9.4,2.3,15,7.5,15,15.4c0,8.6-7,16.4-18.5,16.4
		C420.7,68.9,412.9,60.9,412.8,52.3z"/>
</g>
<pattern  id="SVGID_1_" xlink:href="#New_Pattern_Swatch_2" patternTransform="matrix(1 0 0 1 -177.31 2013.4801)">
</pattern>
<path class="st4" d="M281.8,70.7v3.8c0,1-0.9,1.9-1.9,1.9h-6.6c-1,0-1.9-0.9-1.9-1.9v-4.9c0-0.9-0.6-1.7-1.5-1.9
	c-9.5-2.4-17.2-9.1-20.1-18.8c-0.2-0.8-1-1.3-1.8-1.3h-5.2c-1,0-1.9-0.9-1.9-1.9v-6.8c0-1,0.9-1.9,1.9-1.9h4.4
	c0.9,0,1.7-0.7,1.9-1.6c2-11.4,10.4-19.3,20.8-21.9c0.9-0.2,1.5-1,1.4-1.9V6.5c0-1,0.9-1.9,1.9-1.9h6.9c1,0,1.9,0.9,1.9,1.9v6.6
	c5.8,0.8,11.2,3.4,15.3,7.5c0.7,0.7,0.7,1.9,0,2.6c0,0-0.1,0.1-0.1,0.1l-4.8,4.5c-0.7,0.7-1.9,0.7-2.6,0c-3.3-2.9-7.6-4.4-12-4.4
	c-10,0-18,7.2-18,17.4s8,17.4,18,17.4c4.4,0,8.7-1.5,12-4.4c0.7-0.7,1.9-0.7,2.6,0l4.8,4.5c0.8,0.8,0.8,2,0.1,2.8
	c-3.8,3.8-8.7,6.3-14,7.3c-0.9,0.2-1.5,1-1.5,1.9L281.8,70.7z"/>
<path class="st5" d="M470.2,17h-2.6v7.5H466V17h-2.6v-1.4h6.6V17H470.2z"/>
<path class="st5" d="M480,24.7l-0.7-6.1l-2.4,5h-1.3l-2.4-5l-0.7,6.1h-1.6l1.2-8.9h1.4l2.9,6.2l2.9-6.2h1.4l1.2,8.9H480z"/>
</svg>
