<?xml version="1.0" standalone="no"?>
<!DOCTYPE svg PUBLIC "-//W3C//DTD SVG 20010904//EN"
 "http://www.w3.org/TR/2001/REC-SVG-20010904/DTD/svg10.dtd">
<svg version="1.0" xmlns="http://www.w3.org/2000/svg"
 width="1044.000000pt" height="1044.000000pt" viewBox="0 0 1044.000000 1044.000000"
 preserveAspectRatio="xMidYMid meet">
<metadata>
Created by potrace 1.11, written by Peter Selinger 2001-2013
</metadata>
<g transform="translate(0.000000,1044.000000) scale(0.100000,-0.100000)"
fill="#000000" stroke="none">
<path d="M5749 10345 c-3 -2 -16 -6 -31 -9 -40 -7 -88 -35 -120 -70 -27 -28
-60 -79 -64 -98 -1 -5 -2 -9 -4 -10 -11 -14 -17 -90 -9 -109 4 -8 4 -21 -1
-28 -4 -8 -4 -26 0 -42 5 -15 6 -30 2 -33 -8 -9 -8 -196 0 -196 4 0 5 -7 1
-16 -9 -23 -9 -235 0 -241 4 -2 4 -9 1 -15 -4 -5 -7 -60 -8 -122 -2 -85 -7
-119 -21 -146 -48 -92 -105 -137 -205 -164 -36 -9 -69 -18 -75 -20 -5 -1 -30
-8 -55 -15 -65 -18 -233 -73 -245 -80 -5 -3 -12 -6 -15 -6 -10 -1 -85 -28 -95
-34 -5 -3 -15 -6 -21 -7 -19 -3 -224 -94 -334 -148 -124 -62 -225 -117 -298
-163 -29 -18 -57 -33 -62 -33 -6 0 -10 -4 -10 -10 0 -5 -5 -10 -10 -10 -11 0
-182 -116 -255 -172 -5 -5 -35 -27 -65 -50 -30 -24 -60 -47 -66 -53 -6 -5 -37
-32 -69 -60 -167 -143 -326 -304 -441 -445 -16 -19 -31 -37 -34 -40 -3 -3 -18
-23 -35 -45 -16 -22 -32 -42 -35 -45 -3 -3 -17 -21 -30 -40 -13 -19 -27 -37
-30 -40 -24 -20 -243 -374 -255 -411 -4 -13 -11 -26 -15 -29 -12 -9 -126 -250
-164 -350 -21 -52 -44 -112 -53 -133 -9 -21 -16 -44 -16 -52 0 -8 -5 -15 -10
-15 -6 0 -8 -2 -5 -5 3 -3 -8 -47 -24 -98 -27 -86 -74 -260 -84 -317 -3 -14
-7 -32 -9 -40 -3 -8 -7 -32 -11 -54 -3 -21 -8 -47 -10 -57 -2 -11 -6 -27 -8
-37 -11 -49 -41 -100 -82 -138 -48 -46 -86 -62 -169 -70 -27 -3 -56 -7 -62 -9
-7 -3 -13 -1 -13 3 0 4 -17 6 -37 5 -69 -3 -87 -4 -155 -2 -37 0 -72 -2 -77
-6 -6 -3 -11 -2 -11 2 0 5 -29 6 -65 3 -36 -3 -65 -3 -65 0 0 7 -77 3 -97 -5
-7 -2 -13 -1 -13 3 0 16 -153 -11 -186 -33 -36 -23 -92 -82 -108 -114 -27 -52
-31 -131 -30 -642 l1 -496 25 -54 c34 -72 71 -109 143 -144 37 -17 69 -19 477
-20 326 -1 441 -4 450 -13 7 -7 19 -12 29 -12 39 0 140 -120 153 -183 2 -7 5
-19 8 -27 3 -8 18 -53 33 -100 27 -83 86 -235 121 -315 10 -22 18 -42 19 -45
3 -16 155 -310 165 -320 3 -3 12 -18 20 -35 8 -16 18 -34 22 -40 26 -34 78
-118 78 -126 0 -5 5 -9 10 -9 6 0 10 -5 10 -11 0 -6 10 -24 23 -39 12 -15 29
-37 37 -50 17 -26 79 -109 95 -127 5 -7 15 -18 20 -25 14 -18 105 -128 130
-156 50 -58 277 -283 340 -337 39 -33 72 -62 75 -65 3 -4 23 -19 45 -36 22
-16 45 -33 51 -39 68 -59 354 -255 373 -255 5 0 11 -4 13 -9 3 -9 240 -141
253 -141 5 0 16 -7 26 -16 9 -8 23 -17 31 -18 7 -2 47 -19 88 -38 79 -38 152
-70 160 -72 3 -1 52 -20 110 -42 58 -23 123 -47 145 -53 22 -7 49 -16 60 -21
31 -12 168 -53 185 -55 9 0 20 -4 25 -7 6 -3 26 -9 45 -13 19 -4 46 -12 60
-18 14 -6 27 -11 30 -11 27 -6 111 -84 111 -103 0 -4 6 -15 14 -23 25 -29 29
-87 30 -460 1 -372 5 -420 31 -472 17 -34 110 -125 124 -122 3 1 16 -3 30 -9
17 -7 205 -11 565 -11 l540 0 43 23 c64 35 119 96 139 155 15 44 17 97 18 412
l1 360 28 57 c40 83 105 130 207 153 13 3 29 6 34 8 6 1 33 7 60 11 57 10 64
12 68 15 1 1 9 3 17 5 8 1 51 13 95 24 44 12 89 24 99 26 65 15 344 114 423
150 17 8 34 15 37 15 12 0 281 134 284 142 2 4 12 8 23 8 10 0 19 4 19 8 0 4
16 14 35 21 19 7 35 16 35 21 0 5 10 12 23 16 34 10 291 184 393 266 182 146
318 271 364 337 24 35 49 122 44 156 -14 100 -35 140 -109 210 -29 28 -110
104 -180 170 -70 66 -162 154 -206 195 -154 147 -272 255 -303 278 -66 49
-170 60 -253 26 -31 -13 -59 -27 -62 -31 -24 -32 -284 -226 -371 -277 -196
-114 -574 -272 -669 -279 -12 -1 -21 -6 -21 -11 0 -5 -3 -7 -6 -4 -3 3 -31 0
-62 -8 -31 -8 -70 -16 -87 -19 -16 -2 -46 -7 -65 -10 -93 -15 -179 -25 -255
-30 -73 -5 -332 -5 -390 0 -166 14 -186 16 -300 37 -33 6 -69 12 -80 14 -40 6
-182 42 -205 51 -8 3 -21 7 -29 9 -30 6 -203 66 -229 80 -15 7 -30 14 -35 14
-4 0 -49 20 -100 44 -171 82 -341 187 -492 305 -80 63 -306 286 -350 346 -17
22 -32 42 -35 45 -17 17 -143 197 -153 220 -4 8 -21 38 -37 65 -78 130 -180
370 -215 508 -3 9 -7 25 -10 35 -29 112 -46 185 -51 222 -3 25 -8 54 -11 65
-16 73 -27 235 -26 415 0 194 5 274 28 410 3 19 7 51 10 70 6 52 55 237 91
350 3 8 5 16 5 17 -1 10 110 265 118 273 4 3 21 34 39 70 18 36 41 79 52 95
11 17 23 37 27 45 11 23 101 147 167 230 93 116 293 309 398 385 190 137 401
256 573 323 55 21 109 43 120 47 11 4 25 9 30 10 6 2 33 10 61 20 28 9 60 18
70 20 10 2 19 4 19 6 0 1 9 3 20 5 11 2 47 10 80 18 33 9 74 18 90 21 70 12
91 15 110 20 23 5 90 12 220 24 94 8 453 6 494 -3 13 -3 56 -8 95 -12 75 -7
77 -7 116 -17 22 -6 44 -10 115 -21 11 -2 40 -10 65 -17 25 -7 50 -14 55 -14
19 -2 190 -56 222 -71 18 -8 50 -21 70 -28 21 -8 61 -24 88 -37 28 -12 52 -23
55 -23 12 -3 198 -106 233 -130 21 -14 40 -26 44 -26 8 0 148 -102 151 -112 2
-4 10 -8 17 -8 7 0 15 -3 17 -7 2 -5 24 -25 50 -46 26 -21 54 -44 61 -51 28
-28 99 -57 149 -60 53 -4 138 16 171 39 18 12 145 129 282 260 40 39 122 115
181 170 312 291 333 318 335 427 2 91 -26 153 -105 231 -119 117 -355 317
-374 317 -6 0 -12 4 -14 9 -2 7 -180 130 -243 168 -115 69 -183 106 -315 171
-85 42 -157 77 -160 77 -3 0 -40 15 -83 33 -84 35 -183 71 -287 103 -36 11
-69 22 -75 23 -5 2 -14 5 -20 6 -5 1 -20 6 -33 11 -12 5 -33 11 -45 13 -12 3
-59 14 -103 25 -45 12 -97 23 -115 25 -19 3 -34 5 -34 6 0 4 -82 19 -167 32
l-76 11 0 34 c0 19 -3 37 -6 40 -3 3 -2 13 3 22 5 9 5 25 1 36 -4 11 -4 32 1
48 4 15 4 27 0 27 -5 0 -5 15 -2 33 4 17 4 47 0 65 -4 17 -3 34 2 37 4 3 4 16
0 28 -5 12 -5 34 0 49 4 16 4 28 -1 28 -4 0 -5 15 -1 33 4 17 4 47 0 65 -3 18
-3 35 2 38 5 3 7 10 3 15 -3 6 -6 34 -5 62 2 83 1 120 -5 129 -3 4 -1 8 5 8 6
0 6 11 1 30 -5 18 -5 32 1 36 5 3 7 9 4 14 -3 5 -7 37 -9 72 -6 102 -61 184
-155 231 -46 22 -49 22 -587 24 -298 1 -543 1 -545 -2z"/>
</g>
</svg>
